<?xml version="1.0" encoding="utf-8"?>
<!-- Generator: Adobe Illustrator 25.0.0, SVG Export Plug-In . SVG Version: 6.00 Build 0)  -->
<svg version="1.1" id="Layer_1" xmlns:svgjs="http://svgjs.com/svgjs"
	 xmlns="http://www.w3.org/2000/svg" xmlns:xlink="http://www.w3.org/1999/xlink" x="0px" y="0px" viewBox="0 0 512 512"
	 style="enable-background:new 0 0 512 512;" xml:space="preserve">
<style type="text/css">
	.st0{fill:#DC2625;}
</style>
<g>
	<path class="st0" d="M278.7,185.5c-6.6,0-12,5.4-12,12v226.6c0,6.6,5.4,12,12,12c6.6,0,12-5.4,12-12V197.5
		C290.7,190.9,285.3,185.5,278.7,185.5z"/>
	<path class="st0" d="M137.2,185.5c-6.6,0-12,5.4-12,12v226.6c0,6.6,5.4,12,12,12c6.6,0,12-5.4,12-12V197.5
		C149.2,190.9,143.8,185.5,137.2,185.5z"/>
	<path class="st0" d="M34.1,152.4v295.4c0,17.5,6.4,33.9,17.6,45.6C62.8,505.3,78.3,512,94.5,512h226.9c16.2,0,31.7-6.7,42.8-18.5
		c11.2-11.8,17.6-28.2,17.6-45.6V152.4c22.2-5.9,36.6-27.4,33.7-50.2c-3-22.8-22.4-39.9-45.4-39.9h-61.4v-15
		c0.1-12.6-4.9-24.7-13.8-33.6c-8.9-8.9-21-13.9-33.6-13.8H154.7C142.1-0.1,130,4.9,121,13.8c-8.9,8.9-13.9,21-13.8,33.6v15H45.8
		c-23,0-42.4,17.1-45.4,39.9C-2.6,125,11.8,146.5,34.1,152.4z M321.3,488H94.5C74,488,58,470.4,58,447.8V153.5h299.8v294.4
		C357.8,470.4,341.8,488,321.3,488z M131.2,47.4c-0.1-6.2,2.4-12.3,6.8-16.7c4.4-4.4,10.4-6.8,16.7-6.7h106.5
		c6.2-0.1,12.3,2.3,16.7,6.7c4.4,4.4,6.9,10.4,6.8,16.7v15H131.2V47.4z M45.8,86.3H370c11.9,0,21.6,9.7,21.6,21.6
		s-9.7,21.6-21.6,21.6H45.8c-11.9,0-21.6-9.7-21.6-21.6S33.9,86.3,45.8,86.3z"/>
	<path class="st0" d="M207.9,185.5c-6.6,0-12,5.4-12,12v226.6c0,6.6,5.4,12,12,12c6.6,0,12-5.4,12-12V197.5
		C219.9,190.9,214.5,185.5,207.9,185.5z"/>
</g>
</svg>
