<svg xmlns="http://www.w3.org/2000/svg" viewBox="0 0 80.01 208.77"><g id="Layer_2" data-name="Layer 2"><g id="_ÎÓÈ_1" data-name="—ÎÓÈ_1"><ellipse cx="40" cy="200.18" rx="39.5" ry="8.6" style="fill:#b3b3b3;opacity:0"/><ellipse cx="40" cy="200.18" rx="38.88" ry="8.46" style="fill:#b3b3b3;opacity:0.01960784383118105"/><ellipse cx="40" cy="200.18" rx="38.25" ry="8.32" style="fill:#b3b3b3;opacity:0.03921568694011242"/><ellipse cx="40" cy="200.18" rx="37.62" ry="8.19" style="fill:#b3b3b3;opacity:0.05882353004904378"/><ellipse cx="40" cy="200.18" rx="37" ry="8.05" style="fill:#b3b3b3;opacity:0.07843137315797515"/><ellipse cx="40" cy="200.18" rx="36.37" ry="7.92" style="fill:#b3b3b3;opacity:0.09803921626690651"/><ellipse cx="40" cy="200.18" rx="35.74" ry="7.78" style="fill:#b3b3b3;opacity:0.11764705937583787"/><ellipse cx="40" cy="200.18" rx="35.12" ry="7.64" style="fill:#b3b3b3;opacity:0.13725490248476924"/><ellipse cx="40" cy="200.18" rx="34.49" ry="7.51" style="fill:#b3b3b3;opacity:0.15686274559370061"/><ellipse cx="40" cy="200.18" rx="33.86" ry="7.37" style="fill:#b3b3b3;opacity:0.176470588702632"/><path d="M73.24,200.18c0,4-14.88,7.23-33.24,7.23s-33.23-3.24-33.23-7.23,14.88-7.24,33.23-7.24S73.24,196.18,73.24,200.18Z" style="fill:#b3b3b3;opacity:0.19607843181156337"/><path d="M72.62,200.18c0,3.91-14.61,7.09-32.62,7.09s-32.61-3.18-32.61-7.09,14.6-7.1,32.61-7.1S72.62,196.26,72.62,200.18Z" style="fill:#b3b3b3;opacity:0.21568627492049475"/><path d="M72,200.18c0,3.84-14.32,7-32,7s-32-3.12-32-7,14.32-7,32-7S72,196.33,72,200.18Z" style="fill:#b3b3b3;opacity:0.23529411802942612"/><path d="M71.36,200.18c0,3.76-14,6.82-31.36,6.82s-31.36-3.06-31.36-6.82,14-6.83,31.36-6.83S71.36,196.41,71.36,200.18Z" style="fill:#b3b3b3;opacity:0.2549019611383575"/><path d="M70.74,200.18c0,3.69-13.76,6.68-30.74,6.68s-30.73-3-30.73-6.68S23,193.49,40,193.49,70.74,196.48,70.74,200.18Z" style="fill:#b3b3b3;opacity:0.2745098042472889"/><path d="M70.11,200.18c0,3.61-13.48,6.55-30.11,6.55s-30.1-2.94-30.1-6.55,13.48-6.56,30.1-6.56S70.11,196.56,70.11,200.18Z" style="fill:#b3b3b3;opacity:0.29411764735622026"/><path d="M69.48,200.18c0,3.54-13.2,6.41-29.48,6.41s-29.48-2.87-29.48-6.41,13.2-6.42,29.48-6.42S69.48,196.63,69.48,200.18Z" style="fill:#b3b3b3;opacity:0.31372549046515164"/><path d="M68.86,200.18c0,3.46-12.92,6.27-28.86,6.27s-28.85-2.81-28.85-6.27S24.07,193.9,40,193.9,68.86,196.71,68.86,200.18Z" style="fill:#b3b3b3;opacity:0.333333333574083"/><path d="M68.23,200.18c0,3.39-12.64,6.14-28.23,6.14s-28.22-2.75-28.22-6.14S24.41,194,40,194,68.23,196.78,68.23,200.18Z" style="fill:#b3b3b3;opacity:0.3529411766830144"/><path d="M67.6,200.18c0,3.31-12.35,6-27.6,6s-27.6-2.69-27.6-6,12.36-6,27.6-6S67.6,196.86,67.6,200.18Z" style="fill:#b3b3b3;opacity:0.37254901979194577"/><path d="M67,200.18C67,203.42,54.9,206,40,206s-27-2.62-27-5.86,12.08-5.87,27-5.87S67,196.93,67,200.18Z" style="fill:#b3b3b3;opacity:0.39215686290087715"/><path d="M66.35,200.18c0,3.16-11.8,5.73-26.35,5.73s-26.34-2.57-26.34-5.73,11.79-5.74,26.34-5.74S66.35,197,66.35,200.18Z" style="fill:#b3b3b3;opacity:0.4117647060098085"/><path d="M65.72,200.18c0,3.09-11.51,5.59-25.72,5.59s-25.72-2.5-25.72-5.59,11.52-5.6,25.72-5.6S65.72,197.08,65.72,200.18Z" style="fill:#b3b3b3;opacity:0.4313725491187399"/><path d="M65.1,200.18c0,3-11.24,5.46-25.1,5.46s-25.09-2.45-25.09-5.46,11.23-5.47,25.09-5.47S65.1,197.16,65.1,200.18Z" style="fill:#b3b3b3;opacity:0.4509803922276713"/><path d="M64.47,200.18c0,2.94-10.95,5.32-24.47,5.32s-24.46-2.38-24.46-5.32,11-5.33,24.46-5.33S64.47,197.23,64.47,200.18Z" style="fill:#b3b3b3;opacity:0.47058823533660266"/><path d="M63.84,200.18c0,2.86-10.67,5.18-23.84,5.18S16.16,203,16.16,200.18,26.84,195,40,195,63.84,197.31,63.84,200.18Z" style="fill:#b3b3b3;opacity:0.49019607844553403"/><path d="M63.22,200.18c0,2.79-10.4,5-23.22,5s-23.21-2.26-23.21-5,10.39-5.06,23.21-5.06S63.22,197.38,63.22,200.18Z" style="fill:#b3b3b3;opacity:0.5098039215544654"/><path d="M62.59,200.18c0,2.71-10.11,4.91-22.59,4.91s-22.58-2.2-22.58-4.91,10.11-4.92,22.58-4.92S62.59,197.46,62.59,200.18Z" style="fill:#b3b3b3;opacity:0.5294117646633968"/><path d="M62,200.18c0,2.63-9.83,4.77-22,4.77s-22-2.14-22-4.77,9.83-4.78,22-4.78S62,197.54,62,200.18Z" style="fill:#b3b3b3;opacity:0.5490196077723282"/><path d="M61.34,200.18c0,2.56-9.55,4.64-21.34,4.64s-21.33-2.08-21.33-4.64,9.55-4.65,21.33-4.65S61.34,197.61,61.34,200.18Z" style="fill:#b3b3b3;opacity:0.5686274508812595"/><path d="M60.71,200.18c0,2.48-9.27,4.5-20.71,4.5s-20.7-2-20.7-4.5,9.27-4.51,20.7-4.51S60.71,197.69,60.71,200.18Z" style="fill:#b3b3b3;opacity:0.5882352939901909"/><path d="M60.08,200.18c0,2.41-9,4.37-20.08,4.37s-20.08-2-20.08-4.37,9-4.38,20.08-4.38S60.08,197.76,60.08,200.18Z" style="fill:#b3b3b3;opacity:0.6078431370991223"/><path d="M59.46,200.18c0,2.33-8.71,4.23-19.46,4.23s-19.45-1.9-19.45-4.23,8.71-4.24,19.45-4.24S59.46,197.84,59.46,200.18Z" style="fill:#b3b3b3;opacity:0.6274509802080537"/><path d="M58.83,200.18c0,2.26-8.43,4.09-18.83,4.09s-18.82-1.83-18.82-4.09,8.43-4.1,18.82-4.1S58.83,197.91,58.83,200.18Z" style="fill:#b3b3b3;opacity:0.647058823316985"/><path d="M58.21,200.18c0,2.18-8.15,4-18.21,4s-18.2-1.78-18.2-4,8.15-4,18.2-4S58.21,198,58.21,200.18Z" style="fill:#b3b3b3;opacity:0.6666666664259164"/><path d="M57.58,200.18c0,2.11-7.87,3.82-17.58,3.82s-17.57-1.71-17.57-3.82,7.87-3.83,17.57-3.83S57.58,198.06,57.58,200.18Z" style="fill:#b3b3b3;opacity:0.6862745095348478"/><path d="M57,200.18c0,2-7.59,3.68-17,3.68s-16.95-1.65-16.95-3.68,7.59-3.69,17-3.69S57,198.14,57,200.18Z" style="fill:#b3b3b3;opacity:0.7058823526437792"/><path d="M56.33,200.18c0,2-7.31,3.55-16.33,3.55s-16.32-1.59-16.32-3.55S31,196.62,40,196.62,56.33,198.21,56.33,200.18Z" style="fill:#b3b3b3;opacity:0.7254901957527106"/><path d="M55.7,200.18c0,1.88-7,3.41-15.7,3.41s-15.69-1.53-15.69-3.41,7-3.42,15.69-3.42S55.7,198.29,55.7,200.18Z" style="fill:#b3b3b3;opacity:0.7450980388616419"/><path d="M55.07,200.18c0,1.81-6.74,3.27-15.07,3.27S24.93,202,24.93,200.18,31.68,196.9,40,196.9,55.07,198.36,55.07,200.18Z" style="fill:#b3b3b3;opacity:0.7647058819705733"/><path d="M54.45,200.18c0,1.73-6.47,3.14-14.45,3.14s-14.44-1.41-14.44-3.14S32,197,40,197,54.45,198.44,54.45,200.18Z" style="fill:#b3b3b3;opacity:0.7843137250795047"/><path d="M53.82,200.18c0,1.66-6.19,3-13.82,3s-13.81-1.34-13.81-3,6.18-3,13.81-3S53.82,198.51,53.82,200.18Z" style="fill:#b3b3b3;opacity:0.8039215681884361"/><path d="M53.19,200.18c0,1.58-5.9,2.87-13.19,2.87s-13.19-1.29-13.19-2.87S32.72,197.3,40,197.3,53.19,198.59,53.19,200.18Z" style="fill:#b3b3b3;opacity:0.8235294112973675"/><path d="M52.57,200.18c0,1.51-5.63,2.73-12.57,2.73s-12.56-1.22-12.56-2.73,5.63-2.74,12.56-2.74S52.57,198.67,52.57,200.18Z" style="fill:#b3b3b3;opacity:0.8431372544062988"/><path d="M51.94,200.18c0,1.43-5.34,2.59-11.94,2.59s-11.93-1.16-11.93-2.59,5.34-2.6,11.93-2.6S51.94,198.74,51.94,200.18Z" style="fill:#b3b3b3;opacity:0.8627450975152302"/><path d="M51.31,200.18c0,1.35-5.06,2.46-11.31,2.46s-11.31-1.11-11.31-2.46,5.07-2.47,11.31-2.47S51.31,198.82,51.31,200.18Z" style="fill:#b3b3b3;opacity:0.8823529406241616"/><path d="M50.69,200.18c0,1.28-4.79,2.32-10.69,2.32s-10.68-1-10.68-2.32,4.78-2.33,10.68-2.33S50.69,198.89,50.69,200.18Z" style="fill:#b3b3b3;opacity:0.901960783733093"/><path d="M50.06,200.18c0,1.2-4.5,2.18-10.06,2.18s-10-1-10-2.18S34.45,198,40,198,50.06,199,50.06,200.18Z" style="fill:#b3b3b3;opacity:0.9215686268420243"/><path d="M49.43,200.18c0,1.13-4.22,2-9.43,2s-9.43-.92-9.43-2,4.23-2.06,9.43-2.06S49.43,199,49.43,200.18Z" style="fill:#b3b3b3;opacity:0.9411764699509557"/><path d="M48.81,200.18c0,1-3.94,1.91-8.81,1.91s-8.8-.86-8.8-1.91,3.94-1.92,8.8-1.92S48.81,199.12,48.81,200.18Z" style="fill:#b3b3b3;opacity:0.9607843130598871"/><path d="M48.18,200.18c0,1-3.66,1.77-8.18,1.77s-8.17-.79-8.17-1.77,3.66-1.78,8.17-1.78S48.18,199.19,48.18,200.18Z" style="fill:#b3b3b3;opacity:0.9803921561688185"/><path d="M47.55,200.18c0,.9-3.38,1.64-7.55,1.64s-7.55-.74-7.55-1.64,3.38-1.65,7.55-1.65S47.55,199.27,47.55,200.18Z" style="fill:#b3b3b3"/><circle cx="40" cy="20.97" r="20.47" transform="translate(-3.11 34.43) rotate(-45)" style="fill:#2d3436;stroke:#fff;stroke-miterlimit:10"/><path d="M51.09,41.44H29C13.33,41.44.61,52.22.61,65.53H.5v52.21a8.18,8.18,0,0,0,8.18,8.18h0a8.18,8.18,0,0,0,8.18-8.18V66.6a1.07,1.07,0,0,1,1.07-1.07h0A1.07,1.07,0,0,1,19,66.6V190.06a10.12,10.12,0,0,0,10.12,10.12h0a10.11,10.11,0,0,0,10.11-10.12v-71A1.12,1.12,0,0,1,40.35,118h0a1.12,1.12,0,0,1,1.12,1.12v71.28a9.83,9.83,0,0,0,9.82,9.83h0a9.82,9.82,0,0,0,9.82-9.83V66.55a1,1,0,0,1,1-1h0a1,1,0,0,1,1,1v51.19a8.18,8.18,0,0,0,8.18,8.18h0a8.18,8.18,0,0,0,8.18-8.18V65.53C79.51,52.22,66.79,41.44,51.09,41.44Z" style="fill:#2d3436;stroke:#fff;stroke-miterlimit:10"/></g></g></svg>