<svg xmlns="http://www.w3.org/2000/svg" viewBox="0 0 163.85 102.74"><g id="Layer_2" data-name="Layer 2"><g id="_ÎÓÈ_1" data-name="—ÎÓÈ_1"><g id="g"><g id="g-2" data-name="g"><path id="s" d="M39.21,69.54A17.92,17.92,0,0,1,54.36,77.9h54A18,18,0,0,1,117,70.76V0H0V77.9H24.06A17.9,17.9,0,0,1,39.21,69.54Z" style="fill:#333"/><path id="s-2" data-name="s" d="M0,84.66a2.64,2.64,0,0,0,.91,2,3.31,3.31,0,0,0,2.2.81h18.2a17.79,17.79,0,0,1,1.36-6.86H0Z" style="fill:#333"/><path id="s-3" data-name="s" d="M57.11,87.44h48.52A17.79,17.79,0,0,1,107,80.58H55.75A17.79,17.79,0,0,1,57.11,87.44Z" style="fill:#333"/><path id="s-4" data-name="s" d="M156.42,29.78c-4.95-5-11.41-9.21-17.6-10.13s-18.26-1-18.26-1V69.79a17.17,17.17,0,0,1,3-.25,17.91,17.91,0,0,1,17.9,17.9h15A7.43,7.43,0,0,0,163.85,80V47.71A25.28,25.28,0,0,0,156.42,29.78Zm2.22,24.07a2.64,2.64,0,0,1-3.16,2.59L129,51.15a2.58,2.58,0,0,1-1.52-.91,2.61,2.61,0,0,1-.6-1.68V25.91a129.11,129.11,0,0,1,13.41.72c4.54.68,9.29,3.81,12.92,7.44a18.56,18.56,0,0,1,5.46,13.17Z" style="fill:#333"/><path id="s-5" data-name="s" d="M51.9,78.9c-.24-.34-.48-.68-.74-1a15.3,15.3,0,0,0-23.91,0c-.26.32-.5.66-.74,1a14.07,14.07,0,0,0-1,1.68,15.05,15.05,0,0,0-1.63,6.86,15.3,15.3,0,1,0,30.59,0,15.05,15.05,0,0,0-1.63-6.86A14.07,14.07,0,0,0,51.9,78.9ZM39.21,95.36a7.91,7.91,0,0,1-3.94-14.78,7.85,7.85,0,0,1,7.88,0,7.91,7.91,0,0,1-3.94,14.78Z" style="fill:#333"/><path id="s-6" data-name="s" d="M123.53,72.15a15.26,15.26,0,0,0-3,.29A14.71,14.71,0,0,0,117,73.61a15.28,15.28,0,1,0,6.51-1.46Zm0,23.21a7.92,7.92,0,1,1,7.92-7.92A7.92,7.92,0,0,1,123.53,95.36Z" style="fill:#333"/><rect id="white_stripe" data-name="white stripe" y="6.67" width="117.02" height="1.99" style="fill:#333"/></g></g></g></g></svg>